<?xml version="1.0" encoding="UTF-8" standalone="no"?><!-- Generator: Gravit.io --><svg xmlns="http://www.w3.org/2000/svg" xmlns:xlink="http://www.w3.org/1999/xlink" style="isolation:isolate" viewBox="0 0 476 590" width="476pt" height="590pt"><defs><clipPath id="_clipPath_dmu9oZYJers213Rg7w6ApF5oAwK6x3tI"><rect width="476" height="590"/></clipPath></defs><g clip-path="url(#_clipPath_dmu9oZYJers213Rg7w6ApF5oAwK6x3tI)"><line x1="313.451" y1="441.025" x2="313.451" y2="54.197" vector-effect="non-scaling-stroke" stroke-width="4" stroke="rgb(184,121,255)" stroke-linejoin="round" stroke-linecap="round" stroke-miterlimit="3"/><line x1="159.418" y1="441.025" x2="159.418" y2="54.197" vector-effect="non-scaling-stroke" stroke-width="4" stroke="rgb(184,121,255)" stroke-linejoin="round" stroke-linecap="round" stroke-miterlimit="3"/><line x1="177.947" y1="458.611" x2="297.553" y2="458.611" vector-effect="non-scaling-stroke" stroke-width="4" stroke="rgb(184,121,255)" stroke-linejoin="round" stroke-linecap="round" stroke-miterlimit="3"/><path d=" M 177.947 441.025 L 190.111 427.222 L 190.111 54.197 L 177.947 54.197 L 177.947 441.025 Z " fill="rgb(125,64,200)"/><path d=" M 333.889 17.861 L 333.889 477.361 L 349.889 458.611 L 349.889 0 L 333.889 17.861 Z " fill="rgb(125,64,200)"/><g opacity="0.85"><path d=" M 141.611 17.861 L 333.889 17.861 L 333.889 477.361 L 141.611 477.361 L 141.611 17.861 Z  M 177.947 54.197 L 297.553 54.197 L 297.553 441.025 L 177.947 441.025 L 177.947 54.197 Z " fill-rule="evenodd" fill="rgb(148,61,255)"/></g><g opacity="0.85"><path d=" M 0 343.75 L 0 151.472 L 459.5 151.472 L 459.5 343.75 L 0 343.75 Z  M 36.336 307.414 L 36.336 187.808 L 423.164 187.808 L 423.164 307.414 L 36.336 307.414 Z " fill-rule="evenodd" fill="rgb(255,103,103)"/></g><g opacity="0.85"><path d=" M 0 151.472 L 19.5 133.611 L 133.611 133.611 L 475.5 133.611 L 459.5 151.472 L 0 151.472 Z " fill="rgb(255,186,186)"/></g><path d=" M 141.611 17.861 L 161.111 0 L 275.222 0 L 350.5 0 L 333.889 17.861 L 141.611 17.861 Z " fill="rgb(202,158,255)"/><g opacity="0.85"><path d=" M 459.5 151.472 L 459.5 343.75 L 475.5 325.611 L 475.5 133.611 L 459.5 151.472 Z " fill="rgb(238,106,106)"/></g><g opacity="0.85"><path d=" M 36.336 307.414 L 48.5 293.611 L 423.164 293.611 L 423.164 307.414 L 36.336 307.414 Z " fill="rgb(255,186,186)"/></g><path d=" M 177.947 441.025 L 190.111 427.222 L 297.553 427.222 L 297.553 441.025 L 177.947 441.025 Z " fill="rgb(202,158,255)"/><path d=" M 36.336 307.414 L 48.5 293.611 L 48.5 187.808 L 36.336 187.808 L 36.336 307.414 Z " fill="rgb(238,106,106)"/><rect x="14.5" y="162.611" width="15" height="13" transform="matrix(1,0,0,1,0,0)" fill="rgb(255,243,243)"/><rect x="42.418" y="162.611" width="60.164" height="13" transform="matrix(1,0,0,1,0,0)" fill="rgb(255,186,186)"/><rect x="131.5" y="162.611" width="15" height="13" transform="matrix(1,0,0,1,0,0)" fill="rgb(255,243,243)"/><rect x="159.418" y="162.611" width="60.164" height="13" transform="matrix(1,0,0,1,0,0)" fill="rgb(255,186,186)"/><rect x="246.055" y="162.611" width="15" height="13" transform="matrix(1,0,0,1,0,0)" fill="rgb(255,243,245)"/><rect x="273.973" y="162.611" width="60.164" height="13" transform="matrix(1,0,0,1,0,0)" fill="rgb(255,186,186)"/><rect x="358.5" y="162.611" width="15" height="13" transform="matrix(1,0,0,1,0,0)" fill="rgb(255,243,243)"/><rect x="386.418" y="162.611" width="60.164" height="13" transform="matrix(1,0,0,1,0,0)" fill="rgb(255,186,186)"/><rect x="13.709" y="319.111" width="15" height="13" transform="matrix(1,0,0,1,0,0)" fill="rgb(255,243,243)"/><rect x="41.627" y="319.111" width="60.164" height="13" transform="matrix(1,0,0,1,0,0)" fill="rgb(255,186,186)"/><rect x="130.709" y="319.111" width="15" height="13" transform="matrix(1,0,0,1,0,0)" fill="rgb(255,243,243)"/><rect x="158.627" y="319.111" width="60.164" height="13" transform="matrix(1,0,0,1,0,0)" fill="rgb(255,186,186)"/><rect x="245.264" y="319.111" width="15" height="13" transform="matrix(1,0,0,1,0,0)" fill="rgb(255,243,243)"/><rect x="273.182" y="319.111" width="60.164" height="13" transform="matrix(1,0,0,1,0,0)" fill="rgb(255,186,186)"/><rect x="357.709" y="319.111" width="15" height="13" transform="matrix(1,0,0,1,0,0)" fill="rgb(255,243,243)"/><rect x="385.627" y="319.111" width="60.164" height="13" transform="matrix(1,0,0,1,0,0)" fill="rgb(255,186,186)"/><rect x="14.5" y="187.808" width="7.5" height="119.606" transform="matrix(1,0,0,1,0,0)" fill="rgb(255,95,95)"/><rect x="438.291" y="187.808" width="7.5" height="119.606" transform="matrix(1,0,0,1,0,0)" fill="rgb(255,95,95)"/><ellipse vector-effect="non-scaling-stroke" cx="158.62705930807243" cy="458.61077880859375" rx="9.395305490094131" ry="8.50696367812111" fill="rgb(237,171,255)"/><ellipse vector-effect="non-scaling-stroke" cx="159.41803953871508" cy="36.11774248671486" rx="9.39530549009416" ry="8.506963678121139" fill="rgb(237,171,255)"/><ellipse vector-effect="non-scaling-stroke" cx="313.4507008772442" cy="458.61077880859375" rx="9.395305490094131" ry="8.50696367812111" fill="rgb(237,171,255)"/><ellipse vector-effect="non-scaling-stroke" cx="313.4507008772444" cy="36.11774248671486" rx="9.395305490094131" ry="8.506963678121139" fill="rgb(237,171,255)"/><line x1="177.947" y1="458.611" x2="297.553" y2="458.611" vector-effect="non-scaling-stroke" stroke-width="4" stroke="rgb(184,121,255)" stroke-linejoin="round" stroke-linecap="round" stroke-miterlimit="3"/><line x1="176.631" y1="36.118" x2="296.237" y2="36.118" vector-effect="non-scaling-stroke" stroke-width="4" stroke="rgb(184,121,255)" stroke-linejoin="round" stroke-linecap="round" stroke-miterlimit="3"/><defs><filter id="fcBDNQHHbxtR8dlAKUrJLsiQzxZEUPeJ" x="-200%" y="-200%" width="400%" height="400%" filterUnits="objectBoundingBox" color-interpolation-filters="sRGB"><feGaussianBlur xmlns="http://www.w3.org/2000/svg" stdDeviation="7.084454953684396"/></filter></defs><g filter="url(#fcBDNQHHbxtR8dlAKUrJLsiQzxZEUPeJ)"><ellipse vector-effect="non-scaling-stroke" cx="240.93852965403602" cy="558.360778808594" rx="192.4385296540362" ry="28" fill="rgb(189,189,189)"/></g></g></svg>