<?xml version="1.0" encoding="UTF-8" standalone="no"?><!-- Generator: Gravit.io --><svg xmlns="http://www.w3.org/2000/svg" xmlns:xlink="http://www.w3.org/1999/xlink" style="isolation:isolate" viewBox="0 0 476 620" width="476pt" height="620pt"><defs><clipPath id="_clipPath_RuJCzYlJTrk6jPS1gGvEttt8VVonSl5P"><rect width="476" height="620"/></clipPath></defs><g clip-path="url(#_clipPath_RuJCzYlJTrk6jPS1gGvEttt8VVonSl5P)"><line x1="299.241" y1="413.785" x2="299.241" y2="100.845" vector-effect="non-scaling-stroke" stroke-width="4" stroke="rgb(184,121,255)" stroke-linejoin="round" stroke-linecap="round" stroke-miterlimit="3"/><line x1="174.63" y1="413.785" x2="174.63" y2="100.845" vector-effect="non-scaling-stroke" stroke-width="4" stroke="rgb(184,121,255)" stroke-linejoin="round" stroke-linecap="round" stroke-miterlimit="3"/><line x1="189.62" y1="428.012" x2="286.38" y2="428.012" vector-effect="non-scaling-stroke" stroke-width="4" stroke="rgb(184,121,255)" stroke-linejoin="round" stroke-linecap="round" stroke-miterlimit="3"/><path d=" M 189.62 413.785 L 199.46 402.619 L 199.46 100.845 L 189.62 100.845 L 189.62 413.785 Z " fill="rgb(125,64,200)"/><path d=" M 315.776 71.449 L 315.776 443.181 L 328.72 428.012 L 328.72 57 L 315.776 71.449 Z " fill="rgb(125,64,200)"/><g opacity="0.85"><path d=" M 160.224 71.449 L 315.776 71.449 L 315.776 443.181 L 160.224 443.181 L 160.224 71.449 Z  M 189.62 100.845 L 286.38 100.845 L 286.38 413.785 L 189.62 413.785 L 189.62 100.845 Z " fill-rule="evenodd" fill="rgb(148,61,255)"/></g><g opacity="0.85"><path d=" M 45.662 335.091 L 45.662 179.539 L 417.394 179.539 L 417.394 335.091 L 45.662 335.091 Z  M 75.058 305.695 L 75.058 208.935 L 387.998 208.935 L 387.998 305.695 L 75.058 305.695 Z " fill-rule="evenodd" fill="rgb(255,103,103)"/></g><g opacity="0.85"><path d=" M 45.662 179.539 L 61.438 165.09 L 153.752 165.09 L 430.338 165.09 L 417.394 179.539 L 45.662 179.539 Z " fill="rgb(255,186,186)"/></g><path d=" M 160.224 71.449 L 176 57 L 268.314 57 L 329.214 57 L 315.776 71.449 L 160.224 71.449 Z " fill="rgb(202,158,255)"/><g opacity="0.85"><path d=" M 417.394 179.539 L 417.394 335.091 L 430.338 320.416 L 430.338 165.09 L 417.394 179.539 Z " fill="rgb(238,106,106)"/></g><g opacity="0.85"><path d=" M 75.058 305.695 L 84.898 294.529 L 387.998 294.529 L 387.998 305.695 L 75.058 305.695 Z " fill="rgb(255,186,186)"/></g><path d=" M 189.62 413.785 L 199.46 402.619 L 286.38 402.619 L 286.38 413.785 L 189.62 413.785 Z " fill="rgb(202,158,255)"/><path d=" M 75.058 305.695 L 84.898 294.529 L 84.898 208.935 L 75.058 208.935 L 75.058 305.695 Z " fill="rgb(238,106,106)"/><rect x="57.393" y="188.551" width="12.135" height="10.517" transform="matrix(1,0,0,1,0,0)" fill="rgb(255,243,243)"/><rect x="79.978" y="188.551" width="48.672" height="10.517" transform="matrix(1,0,0,1,0,0)" fill="rgb(255,186,186)"/><rect x="152.045" y="188.551" width="12.135" height="10.517" transform="matrix(1,0,0,1,0,0)" fill="rgb(255,243,243)"/><rect x="174.63" y="188.551" width="48.672" height="10.517" transform="matrix(1,0,0,1,0,0)" fill="rgb(255,186,186)"/><rect x="244.719" y="188.551" width="12.135" height="10.517" transform="matrix(1,0,0,1,0,0)" fill="rgb(255,243,245)"/><rect x="267.304" y="188.551" width="48.672" height="10.517" transform="matrix(1,0,0,1,0,0)" fill="rgb(255,186,186)"/><rect x="335.686" y="188.551" width="12.135" height="10.517" transform="matrix(1,0,0,1,0,0)" fill="rgb(255,243,243)"/><rect x="358.271" y="188.551" width="48.672" height="10.517" transform="matrix(1,0,0,1,0,0)" fill="rgb(255,186,186)"/><rect x="56.753" y="315.158" width="12.135" height="10.517" transform="matrix(1,0,0,1,0,0)" fill="rgb(255,243,243)"/><rect x="79.338" y="315.158" width="48.672" height="10.517" transform="matrix(1,0,0,1,0,0)" fill="rgb(255,186,186)"/><rect x="151.405" y="315.158" width="12.135" height="10.517" transform="matrix(1,0,0,1,0,0)" fill="rgb(255,243,243)"/><rect x="173.99" y="315.158" width="48.672" height="10.517" transform="matrix(1,0,0,1,0,0)" fill="rgb(255,186,186)"/><rect x="244.079" y="315.158" width="12.135" height="10.517" transform="matrix(1,0,0,1,0,0)" fill="rgb(255,243,243)"/><rect x="266.665" y="315.158" width="48.672" height="10.517" transform="matrix(1,0,0,1,0,0)" fill="rgb(255,186,186)"/><rect x="335.046" y="315.158" width="12.135" height="10.517" transform="matrix(1,0,0,1,0,0)" fill="rgb(255,243,243)"/><rect x="357.631" y="315.158" width="48.672" height="10.517" transform="matrix(1,0,0,1,0,0)" fill="rgb(255,186,186)"/><rect x="57.393" y="208.935" width="6.067" height="96.76" transform="matrix(1,0,0,1,0,0)" fill="rgb(255,95,95)"/><rect x="400.236" y="208.935" width="6.067" height="96.76" transform="matrix(1,0,0,1,0,0)" fill="rgb(255,95,95)"/><ellipse vector-effect="non-scaling-stroke" cx="173.99022798811578" cy="428.01213803502753" rx="7.600720564020776" ry="6.882059751420115" fill="rgb(237,171,255)"/><ellipse vector-effect="non-scaling-stroke" cx="174.63012412679038" cy="86.2189400689758" rx="7.600720564020776" ry="6.882059751420087" fill="rgb(237,171,255)"/><ellipse vector-effect="non-scaling-stroke" cx="299.2412097163952" cy="428.01213803502753" rx="7.600720564020776" ry="6.882059751420115" fill="rgb(237,171,255)"/><ellipse vector-effect="non-scaling-stroke" cx="299.2412097163954" cy="86.2189400689758" rx="7.600720564020776" ry="6.882059751420087" fill="rgb(237,171,255)"/><line x1="189.62" y1="428.012" x2="286.38" y2="428.012" vector-effect="non-scaling-stroke" stroke-width="4" stroke="rgb(184,121,255)" stroke-linejoin="round" stroke-linecap="round" stroke-miterlimit="3"/><line x1="188.555" y1="86.219" x2="285.316" y2="86.219" vector-effect="non-scaling-stroke" stroke-width="4" stroke="rgb(184,121,255)" stroke-linejoin="round" stroke-linecap="round" stroke-miterlimit="3"/><defs><filter id="fnGJaURH8SwrlmEt4EREGc2CRT4B8l7j" x="-200%" y="-200%" width="400%" height="400%" filterUnits="objectBoundingBox" color-interpolation-filters="sRGB"><feGaussianBlur xmlns="http://www.w3.org/2000/svg" stdDeviation="7.084454953684396"/></filter></defs><g filter="url(#fnGJaURH8SwrlmEt4EREGc2CRT4B8l7j)"><ellipse vector-effect="non-scaling-stroke" cx="240.5794928047814" cy="508.70902192671645" rx="155.68109958675734" ry="22.65175688187753" fill="rgb(189,189,189)"/></g></g></svg>